{"asset":{"version":"2.0","generator":"Blockbench 5.0.2 glTF exporter"},"scenes":[{"nodes":[6],"name":"blockbench_export"}],"scene":0,"nodes":[{"name":"beveled_cuboid","mesh":0},{"rotation":[0,0,0.48098876891938763,0.8767267557075077],"translation":[0.228125,0.021543429301132233,0],"name":"pyramid","mesh":1},{"translation":[0,0.09375,0],"name":"left","children":[1]},{"rotation":[0,0,-0.48098876891938763,0.8767267557075077],"translation":[-0.228125,0.021543429301132233,0],"name":"pyramid","mesh":2},{"translation":[0.40625,0.09375,0],"name":"right","children":[3]},{"translation":[-0.203125,0.1875,0],"name":"wings","children":[2,4]},{"name":"group","children":[0,5]}],"bufferViews":[{"buffer":0,"byteOffset":0,"byteLength":7536,"target":34962,"byteStride":12},{"buffer":0,"byteOffset":7536,"byteLength":7536,"target":34962,"byteStride":12},{"buffer":0,"byteOffset":15072,"byteLength":5024,"target":34962,"byteStride":8},{"buffer":0,"byteOffset":20096,"byteLength":1848,"target":34963},{"buffer":0,"byteOffset":21944,"byteLength":576,"target":34962,"byteStride":12},{"buffer":0,"byteOffset":22520,"byteLength":576,"target":34962,"byteStride":12},{"buffer":0,"byteOffset":23096,"byteLength":384,"target":34962,"byteStride":8},{"buffer":0,"byteOffset":23480,"byteLength":132,"target":34963},{"buffer":0,"byteOffset":23612,"byteLength":576,"target":34962,"byteStride":12},{"buffer":0,"byteOffset":24188,"byteLength":576,"target":34962,"byteStride":12},{"buffer":0,"byteOffset":24764,"byteLength":384,"target":34962,"byteStride":8},{"buffer":0,"byteOffset":25148,"byteLength":132,"target":34963},{"buffer":0,"byteOffset":25280,"byteLength":20},{"buffer":0,"byteOffset":25300,"byteLength":80},{"buffer":0,"byteOffset":25380,"byteLength":124},{"buffer":0,"byteOffset":25504,"byteLength":496},{"buffer":0,"byteOffset":26000,"byteLength":84},{"buffer":0,"byteOffset":26084,"byteLength":252},{"buffer":0,"byteOffset":26336,"byteLength":188},{"buffer":0,"byteOffset":26524,"byteLength":752},{"buffer":0,"byteOffset":27276,"byteLength":176},{"buffer":0,"byteOffset":27452,"byteLength":704}],"buffers":[{"byteLength":28156,"uri":"data:application/octet-stream;base64,"}],"accessors":[{"bufferView":0,"componentType":5126,"count":628,"max":[0.25,0.5,0.2874999940395355],"min":[-0.25,0,-0.25],"type":"VEC3"},{"bufferView":1,"componentType":5126,"count":628,"max":[1,1,1],"min":[-1,-1,-1],"type":"VEC3"},{"bufferView":2,"componentType":5126,"count":628,"max":[0.9375,0.8999999761581421],"min":[0,0],"type":"VEC2"},{"bufferView":3,"componentType":5123,"count":924,"max":[627],"min":[0],"type":"SCALAR"},{"bufferView":4,"componentType":5126,"count":48,"max":[-0.10906265676021576,0.5362842679023743,0.20624999701976776],"min":[-0.3640865683555603,0.20316143333911896,-0.20624999701976776],"type":"VEC3"},{"bufferView":5,"componentType":5126,"count":48,"max":[0.9736586213111877,0.7095237970352173,0.9477653503417969],"min":[-0.9965670704841614,-0.9444955587387085,-0.9463518261909485],"type":"VEC3"},{"bufferView":6,"componentType":5126,"count":48,"max":[0.25,0.27950936555862427],"min":[0,0],"type":"VEC2"},{"bufferView":7,"componentType":5123,"count":66,"max":[47],"min":[0],"type":"SCALAR"},{"bufferView":8,"componentType":5126,"count":48,"max":[0.3640865683555603,0.5362842679023743,0.20624999701976776],"min":[0.10906265676021576,0.20316143333911896,-0.20624999701976776],"type":"VEC3"},{"bufferView":9,"componentType":5126,"count":48,"max":[0.9965670704841614,0.7095237970352173,0.9477653503417969],"min":[-0.9736586213111877,-0.9444955587387085,-0.9463518261909485],"type":"VEC3"},{"bufferView":10,"componentType":5126,"count":48,"max":[0.25,0.27950936555862427],"min":[0,0],"type":"VEC2"},{"bufferView":11,"componentType":5123,"count":66,"max":[47],"min":[0],"type":"SCALAR"},{"bufferView":12,"componentType":5126,"count":5,"max":[1.125],"min":[0],"type":"SCALAR"},{"bufferView":13,"componentType":5126,"count":5,"max":[0,0,-0.02181488461792469,0.9997619986534119],"min":[0,0,-0.02181488461792469,0.9997619986534119],"type":"VEC4"},{"bufferView":14,"componentType":5126,"count":31,"max":[2.2916667461395264],"min":[0],"type":"SCALAR"},{"bufferView":15,"componentType":5126,"count":31,"max":[0.0032275118865072727,0.02083118073642254,0.04856785014271736,1],"min":[-0.043903712183237076,-0.0016867156373336911,-0.08715574443340302,0.9961947202682495],"type":"VEC4"},{"bufferView":16,"componentType":5126,"count":21,"max":[1.5833333730697632],"min":[0],"type":"SCALAR"},{"bufferView":17,"componentType":5126,"count":21,"max":[0,0.4375,0],"min":[0,0,0],"type":"VEC3"},{"bufferView":18,"componentType":5126,"count":47,"max":[3.4166667461395264],"min":[0],"type":"SCALAR"},{"bufferView":19,"componentType":5126,"count":47,"max":[0.01045606005936861,0.009949345141649246,0.25941985845565796,1],"min":[-0.16700336337089539,-0.07926644384860992,-0.15179768204689026,0.9657614827156067],"type":"VEC4"},{"bufferView":20,"componentType":5126,"count":44,"max":[3.3333332538604736],"min":[0],"type":"SCALAR"},{"bufferView":21,"componentType":5126,"count":44,"max":[0.010974623262882233,0.013258426450192928,0.15179768204689026,1],"min":[-0.16404636204242706,-0.08521785587072372,-0.27076607942581177,0.9626360535621643],"type":"VEC4"}],"materials":[{"pbrMetallicRoughness":{"metallicFactor":0,"roughnessFactor":1,"baseColorTexture":{"index":0}},"alphaMode":"MASK","alphaCutoff":0.05,"doubleSided":true}],"textures":[{"sampler":0,"source":0,"name":"texture"}],"samplers":[{"magFilter":9728,"minFilter":9728,"wrapS":33071,"wrapT":33071}],"images":[{"mimeType":"image/png","uri":"data:image/png;base64,"}],"meshes":[{"primitives":[{"mode":4,"attributes":{"POSITION":0,"NORMAL":1,"TEXCOORD_0":2},"indices":3,"material":0}]},{"primitives":[{"mode":4,"attributes":{"POSITION":4,"NORMAL":5,"TEXCOORD_0":6},"indices":7,"material":0}]},{"primitives":[{"mode":4,"attributes":{"POSITION":8,"NORMAL":9,"TEXCOORD_0":10},"indices":11,"material":0}]}],"animations":[{"name":"idle-flap","samplers":[{"input":12,"output":13,"interpolation":"LINEAR"},{"input":14,"output":15,"interpolation":"LINEAR"},{"input":16,"output":17,"interpolation":"LINEAR"},{"input":18,"output":19,"interpolation":"LINEAR"},{"input":20,"output":21,"interpolation":"LINEAR"}],"channels":[{"sampler":0,"target":{"node":5,"path":"rotation"}},{"sampler":1,"target":{"node":6,"path":"rotation"}},{"sampler":2,"target":{"node":6,"path":"translation"}},{"sampler":3,"target":{"node":2,"path":"rotation"}},{"sampler":4,"target":{"node":4,"path":"rotation"}}]}]}