{"asset":{"version":"2.0","generator":"Blockbench 4.12.6 glTF exporter"},"scenes":[{"nodes":[9],"name":"blockbench_export"}],"scene":0,"nodes":[{"name":"top","mesh":0},{"name":"left","mesh":1},{"translation":[0.25,0,0],"name":"right","mesh":2},{"name":"top","children":[1,2]},{"translation":[0.25,0,0],"name":"right","mesh":3},{"name":"left","mesh":4},{"translation":[0,0,0.5],"name":"bottom","children":[4,5]},{"translation":[-0.125,0,-0.25],"name":"legs","children":[3,6]},{"name":"bone","children":[0,7]},{"children":[8]}],"bufferViews":[{"buffer":0,"byteOffset":0,"byteLength":864,"target":34962,"byteStride":12},{"buffer":0,"byteOffset":864,"byteLength":864,"target":34962,"byteStride":12},{"buffer":0,"byteOffset":1728,"byteLength":576,"target":34962,"byteStride":8},{"buffer":0,"byteOffset":2304,"byteLength":216,"target":34963},{"buffer":0,"byteOffset":2520,"byteLength":288,"target":34962,"byteStride":12},{"buffer":0,"byteOffset":2808,"byteLength":288,"target":34962,"byteStride":12},{"buffer":0,"byteOffset":3096,"byteLength":192,"target":34962,"byteStride":8},{"buffer":0,"byteOffset":3288,"byteLength":72,"target":34963},{"buffer":0,"byteOffset":3360,"byteLength":288,"target":34962,"byteStride":12},{"buffer":0,"byteOffset":3648,"byteLength":288,"target":34962,"byteStride":12},{"buffer":0,"byteOffset":3936,"byteLength":192,"target":34962,"byteStride":8},{"buffer":0,"byteOffset":4128,"byteLength":72,"target":34963},{"buffer":0,"byteOffset":4200,"byteLength":288,"target":34962,"byteStride":12},{"buffer":0,"byteOffset":4488,"byteLength":288,"target":34962,"byteStride":12},{"buffer":0,"byteOffset":4776,"byteLength":192,"target":34962,"byteStride":8},{"buffer":0,"byteOffset":4968,"byteLength":72,"target":34963},{"buffer":0,"byteOffset":5040,"byteLength":288,"target":34962,"byteStride":12},{"buffer":0,"byteOffset":5328,"byteLength":288,"target":34962,"byteStride":12},{"buffer":0,"byteOffset":5616,"byteLength":192,"target":34962,"byteStride":8},{"buffer":0,"byteOffset":5808,"byteLength":72,"target":34963}],"buffers":[{"byteLength":5880,"uri":"data:application/octet-stream;base64,"}],"accessors":[{"bufferView":0,"componentType":5126,"count":72,"max":[0.15625,0.20624999701976776,0.3125],"min":[-0.15625,0.17499999701976776,-0.3125],"type":"VEC3"},{"bufferView":1,"componentType":5126,"count":72,"max":[1,1,1],"min":[-1,-1,-1],"type":"VEC3"},{"bufferView":2,"componentType":5126,"count":72,"max":[0.8096694946289062,0.6141723394393921],"min":[0,-0.0032327771186828613],"type":"VEC2"},{"bufferView":3,"componentType":5123,"count":108,"max":[71],"min":[0],"type":"SCALAR"},{"bufferView":4,"componentType":5126,"count":24,"max":[0.01875000074505806,0.20000000298023224,0.01875000074505806],"min":[-0.01875000074505806,0,-0.08124999701976776],"type":"VEC3"},{"bufferView":5,"componentType":5126,"count":24,"max":[0.9995120763778687,1,0.936329185962677],"min":[-0.9995120763778687,-1,-0.954479992389679],"type":"VEC3"},{"bufferView":6,"componentType":5126,"count":24,"max":[0.007324219215661287,0.018749982118606567],"min":[0,0],"type":"VEC2"},{"bufferView":7,"componentType":5123,"count":36,"max":[23],"min":[0],"type":"SCALAR"},{"bufferView":8,"componentType":5126,"count":24,"max":[0.01875000074505806,0.20000000298023224,0.01875000074505806],"min":[-0.01875000074505806,0,-0.08124999701976776],"type":"VEC3"},{"bufferView":9,"componentType":5126,"count":24,"max":[0.9995120763778687,1,0.936329185962677],"min":[-0.9995120763778687,-1,-0.954479992389679],"type":"VEC3"},{"bufferView":10,"componentType":5126,"count":24,"max":[0.007324219215661287,0.018749982118606567],"min":[0,0],"type":"VEC2"},{"bufferView":11,"componentType":5123,"count":36,"max":[23],"min":[0],"type":"SCALAR"},{"bufferView":12,"componentType":5126,"count":24,"max":[0.01875000074505806,0.20000000298023224,0.08124999701976776],"min":[-0.01875000074505806,0,-0.01875000074505806],"type":"VEC3"},{"bufferView":13,"componentType":5126,"count":24,"max":[0.9995120763778687,1,0.954479992389679],"min":[-0.9995120763778687,-1,-0.936329185962677],"type":"VEC3"},{"bufferView":14,"componentType":5126,"count":24,"max":[0.007324219215661287,0.018749982118606567],"min":[0,0],"type":"VEC2"},{"bufferView":15,"componentType":5123,"count":36,"max":[23],"min":[0],"type":"SCALAR"},{"bufferView":16,"componentType":5126,"count":24,"max":[0.01875000074505806,0.20000000298023224,0.08124999701976776],"min":[-0.01875000074505806,0,-0.01875000074505806],"type":"VEC3"},{"bufferView":17,"componentType":5126,"count":24,"max":[0.9995120763778687,1,0.954479992389679],"min":[-0.9995120763778687,-1,-0.936329185962677],"type":"VEC3"},{"bufferView":18,"componentType":5126,"count":24,"max":[0.007324219215661287,0.018749982118606567],"min":[0,0],"type":"VEC2"},{"bufferView":19,"componentType":5123,"count":36,"max":[23],"min":[0],"type":"SCALAR"}],"materials":[{"pbrMetallicRoughness":{"metallicFactor":0,"roughnessFactor":1,"baseColorTexture":{"index":0}},"alphaMode":"MASK","alphaCutoff":0.05,"doubleSided":true}],"textures":[{"sampler":0,"source":0,"name":"woodtop.png"}],"samplers":[{"magFilter":9728,"minFilter":9728,"wrapS":33071,"wrapT":33071}],"images":[{"mimeType":"image/png","uri":"data:image/png;base64,"}],"meshes":[{"primitives":[{"mode":4,"attributes":{"POSITION":0,"NORMAL":1,"TEXCOORD_0":2},"indices":3,"material":0}]},{"primitives":[{"mode":4,"attributes":{"POSITION":4,"NORMAL":5,"TEXCOORD_0":6},"indices":7,"material":0}]},{"primitives":[{"mode":4,"attributes":{"POSITION":8,"NORMAL":9,"TEXCOORD_0":10},"indices":11,"material":0}]},{"primitives":[{"mode":4,"attributes":{"POSITION":12,"NORMAL":13,"TEXCOORD_0":14},"indices":15,"material":0}]},{"primitives":[{"mode":4,"attributes":{"POSITION":16,"NORMAL":17,"TEXCOORD_0":18},"indices":19,"material":0}]}]}