{"asset":{"version":"2.0","generator":"Blockbench 4.12.6 glTF exporter"},"scenes":[{"nodes":[9],"name":"blockbench_export"}],"scene":0,"nodes":[{"translation":[-0.10625000000000004,-0.03125000000000001,0.02500000000000001],"name":"beveled_cuboid","mesh":0},{"name":"beveled_cuboid","mesh":1},{"translation":[0.2062500000000001,0.012500000000000011,-0.0125],"name":"beveled_cuboid","mesh":2},{"translation":[-0.25,0.018750000000000003,-0.0125],"name":"beveled_cuboid","mesh":3},{"translation":[-0.2625,0.018750000000000003,-0.0125],"name":"beveled_cuboid","mesh":4},{"rotation":[0,0,0.6977904598416802,0.7163019434246543],"translation":[-0.24375,0.3249999999999998,0.28125000000000044],"name":"cylinder","mesh":5},{"rotation":[0,0,0.6977904598416802,0.7163019434246543],"translation":[-0.24375,0.2468749999999998,0.2718750000000004],"name":"cylinder","mesh":6},{"translation":[0,-0.018750000000000003,0],"name":"bone","children":[1,2,3,4,5,6]},{"translation":[0.2625,0.03125,0],"name":"bone2","children":[0,7]},{"children":[8]}],"bufferViews":[{"buffer":0,"byteOffset":0,"byteLength":1152,"target":34962,"byteStride":12},{"buffer":0,"byteOffset":1152,"byteLength":1152,"target":34962,"byteStride":12},{"buffer":0,"byteOffset":2304,"byteLength":768,"target":34962,"byteStride":8},{"buffer":0,"byteOffset":3072,"byteLength":264,"target":34963},{"buffer":0,"byteOffset":3336,"byteLength":1920,"target":34962,"byteStride":12},{"buffer":0,"byteOffset":5256,"byteLength":1920,"target":34962,"byteStride":12},{"buffer":0,"byteOffset":7176,"byteLength":1280,"target":34962,"byteStride":8},{"buffer":0,"byteOffset":8456,"byteLength":456,"target":34963},{"buffer":0,"byteOffset":8912,"byteLength":1152,"target":34962,"byteStride":12},{"buffer":0,"byteOffset":10064,"byteLength":1152,"target":34962,"byteStride":12},{"buffer":0,"byteOffset":11216,"byteLength":768,"target":34962,"byteStride":8},{"buffer":0,"byteOffset":11984,"byteLength":264,"target":34963},{"buffer":0,"byteOffset":12248,"byteLength":1152,"target":34962,"byteStride":12},{"buffer":0,"byteOffset":13400,"byteLength":1152,"target":34962,"byteStride":12},{"buffer":0,"byteOffset":14552,"byteLength":768,"target":34962,"byteStride":8},{"buffer":0,"byteOffset":15320,"byteLength":264,"target":34963},{"buffer":0,"byteOffset":15584,"byteLength":1152,"target":34962,"byteStride":12},{"buffer":0,"byteOffset":16736,"byteLength":1152,"target":34962,"byteStride":12},{"buffer":0,"byteOffset":17888,"byteLength":768,"target":34962,"byteStride":8},{"buffer":0,"byteOffset":18656,"byteLength":264,"target":34963},{"buffer":0,"byteOffset":18920,"byteLength":1440,"target":34962,"byteStride":12},{"buffer":0,"byteOffset":20360,"byteLength":1440,"target":34962,"byteStride":12},{"buffer":0,"byteOffset":21800,"byteLength":960,"target":34962,"byteStride":8},{"buffer":0,"byteOffset":22760,"byteLength":288,"target":34963},{"buffer":0,"byteOffset":23048,"byteLength":1440,"target":34962,"byteStride":12},{"buffer":0,"byteOffset":24488,"byteLength":1440,"target":34962,"byteStride":12},{"buffer":0,"byteOffset":25928,"byteLength":960,"target":34962,"byteStride":8},{"buffer":0,"byteOffset":26888,"byteLength":288,"target":34963}],"buffers":[{"byteLength":27176,"uri":"data:application/octet-stream;base64,"}],"accessors":[{"bufferView":0,"componentType":5126,"count":96,"max":[0.07500000298023224,0.4749999940395355,0.3125],"min":[-0.13750000298023224,0,-0.34375],"type":"VEC3"},{"bufferView":1,"componentType":5126,"count":96,"max":[1,1,1],"min":[-1,-1,-1],"type":"VEC3"},{"bufferView":2,"componentType":5126,"count":96,"max":[0.53125,0.53125],"min":[0.003560937475413084,0],"type":"VEC2"},{"bufferView":3,"componentType":5123,"count":132,"max":[95],"min":[0],"type":"SCALAR"},{"bufferView":4,"componentType":5126,"count":160,"max":[0.20000000298023224,0.4375,0.25],"min":[-0.20000000298023224,0,-0.25],"type":"VEC3"},{"bufferView":5,"componentType":5126,"count":160,"max":[1,1,1],"min":[-1,-1,-1],"type":"VEC3"},{"bufferView":6,"componentType":5126,"count":160,"max":[0.6021220088005066,0.546875],"min":[0,0],"type":"VEC2"},{"bufferView":7,"componentType":5123,"count":228,"max":[159],"min":[0],"type":"SCALAR"},{"bufferView":8,"componentType":5126,"count":96,"max":[0.01875000074505806,0.3499999940395355,0.23749999701976776],"min":[-0.01875000074505806,0.0625,-0.20624999701976776],"type":"VEC3"},{"bufferView":9,"componentType":5126,"count":96,"max":[1,1,1],"min":[-1,-1,-1],"type":"VEC3"},{"bufferView":10,"componentType":5126,"count":96,"max":[0.5398539304733276,0.546875],"min":[0.125,0.15625],"type":"VEC2"},{"bufferView":11,"componentType":5123,"count":132,"max":[95],"min":[0],"type":"SCALAR"},{"bufferView":12,"componentType":5126,"count":96,"max":[0.012500000186264515,0.4124999940395355,0.25],"min":[-0.012500000186264515,0,-0.21875],"type":"VEC3"},{"bufferView":13,"componentType":5126,"count":96,"max":[1,1,1],"min":[-1,-1,-1],"type":"VEC3"},{"bufferView":14,"componentType":5126,"count":96,"max":[0.296875,0.546875],"min":[0.046875,0.109375],"type":"VEC2"},{"bufferView":15,"componentType":5123,"count":132,"max":[95],"min":[0],"type":"SCALAR"},{"bufferView":16,"componentType":5126,"count":96,"max":[0.012500000186264515,0.39375001192092896,0.23749999701976776],"min":[-0.012500000186264515,0.01875000074505806,-0.20624999701976776],"type":"VEC3"},{"bufferView":17,"componentType":5126,"count":96,"max":[1,1,1],"min":[-1,-1,-1],"type":"VEC3"},{"bufferView":18,"componentType":5126,"count":96,"max":[0.4148484468460083,0.546875],"min":[0.015625,0.25],"type":"VEC2"},{"bufferView":19,"componentType":5123,"count":132,"max":[95],"min":[0],"type":"SCALAR"},{"bufferView":20,"componentType":5126,"count":120,"max":[0.03125,0.0062500000931322575,0.03125],"min":[-0.03125,-0.0062500000931322575,-0.03125],"type":"VEC3"},{"bufferView":21,"componentType":5126,"count":120,"max":[1,1,1],"min":[-1,-1,-1],"type":"VEC3"},{"bufferView":22,"componentType":5126,"count":120,"max":[0.30637499690055847,0.26249998807907104],"min":[0,0],"type":"VEC2"},{"bufferView":23,"componentType":5123,"count":144,"max":[119],"min":[0],"type":"SCALAR"},{"bufferView":24,"componentType":5126,"count":120,"max":[0.01875000074505806,0.0062500000931322575,0.01875000074505806],"min":[-0.01875000074505806,-0.0062500000931322575,-0.01875000074505806],"type":"VEC3"},{"bufferView":25,"componentType":5126,"count":120,"max":[1,1,1],"min":[-1,-1,-1],"type":"VEC3"},{"bufferView":26,"componentType":5126,"count":120,"max":[0.06470911204814911,0.375],"min":[0,0],"type":"VEC2"},{"bufferView":27,"componentType":5123,"count":144,"max":[119],"min":[0],"type":"SCALAR"}],"materials":[{"pbrMetallicRoughness":{"metallicFactor":0,"roughnessFactor":1,"baseColorTexture":{"index":0}},"alphaMode":"MASK","alphaCutoff":0.05,"doubleSided":true},{"pbrMetallicRoughness":{"metallicFactor":0,"roughnessFactor":1,"baseColorTexture":{"index":1}},"alphaMode":"MASK","alphaCutoff":0.05,"doubleSided":true}],"textures":[{"sampler":0,"source":0,"name":"texture"},{"sampler":1,"source":1,"name":"texture"}],"samplers":[{"magFilter":9728,"minFilter":9728,"wrapS":33071,"wrapT":33071},{"magFilter":9728,"minFilter":9728,"wrapS":33071,"wrapT":33071}],"images":[{"mimeType":"image/png","uri":"data:image/png;base64,"},{"mimeType":"image/png","uri":"data:image/png;base64,"}],"meshes":[{"primitives":[{"mode":4,"attributes":{"POSITION":0,"NORMAL":1,"TEXCOORD_0":2},"indices":3,"material":0}]},{"primitives":[{"mode":4,"attributes":{"POSITION":4,"NORMAL":5,"TEXCOORD_0":6},"indices":7,"material":0}]},{"primitives":[{"mode":4,"attributes":{"POSITION":8,"NORMAL":9,"TEXCOORD_0":10},"indices":11,"material":0}]},{"primitives":[{"mode":4,"attributes":{"POSITION":12,"NORMAL":13,"TEXCOORD_0":14},"indices":15,"material":0}]},{"primitives":[{"mode":4,"attributes":{"POSITION":16,"NORMAL":17,"TEXCOORD_0":18},"indices":19,"material":0}]},{"primitives":[{"mode":4,"attributes":{"POSITION":20,"NORMAL":21,"TEXCOORD_0":22},"indices":23,"material":1}]},{"primitives":[{"mode":4,"attributes":{"POSITION":24,"NORMAL":25,"TEXCOORD_0":26},"indices":27,"material":1}]}]}